<?xml version="1.0" encoding="UTF-8"?>
<svg version="1.1" xmlns="http://www.w3.org/2000/svg" width="512" height="512">
<path d="M0 0 C3.66454001 3.48131301 5.27892274 6.76666292 5.96875 11.78515625 C6.12579095 30.13931732 -3.28607745 44.32131921 -13.125 59.1875 C-14.10726562 60.68313477 -14.10726562 60.68313477 -15.109375 62.20898438 C-15.74617188 63.17771484 -16.38296875 64.14644531 -17.0390625 65.14453125 C-17.63879883 66.06057129 -18.23853516 66.97661133 -18.85644531 67.92041016 C-19.83369136 69.379892 -20.83525433 70.82425026 -21.88574219 72.23193359 C-24.11099879 75.18180892 -24.11099879 75.18180892 -24.18842703 78.76510561 C-23.55828073 81.15405202 -22.79516591 83.42269395 -21.96173 85.74659157 C-19.89810224 92.56610235 -20.08044937 99.36597146 -20.11231995 106.42953491 C-20.10814148 107.94341889 -20.10266116 109.45729974 -20.09600013 110.97117484 C-20.08159399 115.1098546 -20.08577506 119.2483344 -20.09316695 123.38702488 C-20.09790833 127.85885022 -20.08538019 132.33063291 -20.07514954 136.80244446 C-20.05797512 145.55486472 -20.05711872 154.30721314 -20.06236244 163.05964588 C-20.06640795 170.17554021 -20.06495606 177.29141335 -20.05961418 184.40730667 C-20.05886576 185.42104467 -20.05811734 186.43478267 -20.05734624 187.47924001 C-20.05581472 189.5388149 -20.05427637 191.59838978 -20.05273127 193.65796466 C-20.0390111 212.9615844 -20.04444049 232.26516359 -20.05591648 251.5687824 C-20.06584806 269.2169307 -20.05290862 286.86497415 -20.02898229 304.51310627 C-20.00458195 322.64793072 -19.99498574 340.78270634 -20.00163502 358.91754687 C-20.00512519 369.09339168 -20.00290847 379.26915587 -19.98538399 389.44498825 C-19.97065033 398.10751513 -19.97004179 406.7699046 -19.9874549 415.43242882 C-19.99595772 419.84915217 -19.99813207 424.26563017 -19.98280334 428.68234062 C-19.96892477 432.73145519 -19.97375976 436.78011497 -19.99304258 440.82920344 C-19.99679322 442.28805728 -19.99390776 443.74694783 -19.98343093 445.20576887 C-19.8799943 460.72107653 -24.2003888 474.09854985 -34.7578125 485.72265625 C-44.12844689 494.61005165 -56.28073408 500.49011973 -69.23685455 500.50922108 C-69.91660099 500.51157331 -70.59634743 500.51392554 -71.29669225 500.51634905 C-73.58505854 500.52303069 -75.87336794 500.52258108 -78.16174316 500.52217102 C-79.8148137 500.52547018 -81.46788343 500.52919585 -83.12095213 500.5333125 C-87.67218126 500.54333493 -92.22339719 500.54704969 -96.77463579 500.54970181 C-101.68009534 500.55360419 -106.58554444 500.56318264 -111.49099731 500.57191467 C-123.34266007 500.59168186 -135.19432369 500.60174602 -147.04599881 500.61064246 C-152.62713759 500.6150253 -158.20827542 500.62039216 -163.78941345 500.62563133 C-182.34282484 500.64264453 -200.89623563 500.6571384 -219.44965363 500.66438007 C-224.26493836 500.66628997 -229.08022309 500.6682103 -233.89550781 500.67016602 C-235.09232522 500.67064976 -236.28914263 500.6711335 -237.52222723 500.6716319 C-256.90700855 500.679931 -276.29172813 500.70526552 -295.6764825 500.73774669 C-315.57844672 500.77082258 -335.48037957 500.78882935 -355.38237143 500.79202431 C-366.55653301 500.79418901 -377.73060459 500.80293174 -388.90473938 500.82848549 C-398.42195366 500.85019975 -407.93905609 500.85823933 -417.45629233 500.84851871 C-422.31043294 500.84397603 -427.16434278 500.84585845 -432.01845169 500.86528015 C-436.46746822 500.88292692 -440.91608591 500.88190182 -445.36510676 500.86638286 C-446.96950181 500.86400908 -448.57392459 500.86831837 -450.17827731 500.88021151 C-465.9197698 500.98961967 -479.77812808 497.27089676 -491.58984375 486.375 C-500.39119055 477.15968392 -506.61350439 465.02459067 -506.63422108 452.16913605 C-506.63867892 450.88668267 -506.64313676 449.60422929 -506.64772969 448.28291368 C-506.6476404 446.85661855 -506.64745055 445.43032343 -506.64717102 444.00402832 C-506.6504705 442.49120092 -506.65419624 440.97837439 -506.6583125 439.46554899 C-506.6683313 435.30197326 -506.67204911 431.13841194 -506.67470181 426.97482586 C-506.67860528 422.4865476 -506.68818366 417.99828074 -506.69691467 413.51000977 C-506.71667899 402.66688423 -506.72674574 391.82375776 -506.73564246 380.98061872 C-506.74002585 375.87367012 -506.74539257 370.76672256 -506.75063133 365.65977478 C-506.7676444 348.68135035 -506.78213801 331.70292658 -506.78938007 314.72449493 C-506.79128995 310.31828307 -506.79321029 305.91207122 -506.79516602 301.50585938 C-506.79564976 300.41072287 -506.7961335 299.31558637 -506.7966319 298.18726391 C-506.80493009 280.45144408 -506.83026312 262.71569174 -506.86274669 244.97990137 C-506.89582933 226.76843559 -506.91382997 208.55700409 -506.91702431 190.3455081 C-506.91918841 180.12149592 -506.92792226 169.89758212 -506.95348549 159.67359924 C-506.975209 150.9651936 -506.98323481 142.25691024 -506.97351871 133.54848057 C-506.96897866 129.10748617 -506.97084295 124.66674399 -506.99028015 120.2257843 C-507.00794605 116.15424197 -507.00688656 112.08313522 -506.99138286 108.01158804 C-506.98901195 106.54447291 -506.99330336 105.07732735 -507.00521151 103.61025864 C-507.10532863 90.45307888 -504.66443823 79.84222849 -496.5 69.375 C-495.93667969 68.62476562 -495.37335938 67.87453125 -494.79296875 67.1015625 C-486.12321164 56.40582004 -473.95808984 50.31844964 -460.5 48.375 C-458.20714123 48.29592438 -455.91218625 48.26872851 -453.61799145 48.27988529 C-452.61128999 48.28264847 -452.61128999 48.28264847 -451.58425114 48.28546748 C-449.33722252 48.29284112 -447.09030021 48.30748335 -444.8433075 48.32203674 C-443.2152491 48.32876257 -441.58718868 48.33501277 -439.95912677 48.34082836 C-436.4202657 48.35441752 -432.88143879 48.37118951 -429.34260368 48.39037704 C-423.58453032 48.42151062 -417.82644023 48.44553166 -412.06832886 48.46839905 C-405.86733842 48.49331834 -399.6663515 48.51867776 -393.46537244 48.54630196 C-378.09248906 48.61452465 -362.71961571 48.66515439 -347.34663391 48.70506287 C-346.23493976 48.70797964 -345.12324561 48.71089642 -343.97786375 48.71390159 C-334.82324792 48.73787294 -325.66863029 48.76112531 -316.51401208 48.78417118 C-308.26918628 48.80497319 -300.02436259 48.82645758 -291.77954102 48.84887695 C-290.60400198 48.85206556 -289.42846295 48.85525416 -288.21730153 48.8585394 C-269.16352878 48.9112142 -250.11002314 48.99630002 -231.05642595 49.09239245 C-211.49457724 49.19021785 -191.93286968 49.24998474 -172.37079173 49.27521461 C-160.30427849 49.29204548 -148.23865192 49.3390887 -136.17242811 49.42481118 C-127.90399304 49.48078169 -119.63598268 49.50008749 -111.36736568 49.49050058 C-106.59610963 49.48607682 -101.82635325 49.49796512 -97.0553875 49.5535965 C-92.68553463 49.60420299 -88.31815153 49.60846558 -83.94814739 49.57620167 C-82.36938421 49.57267434 -80.79047198 49.58602445 -79.2120318 49.61815304 C-70.43454168 49.86925068 -70.43454168 49.86925068 -62.66311991 46.24890506 C-60.36420259 43.73111362 -58.43028208 41.18133084 -56.5 38.375 C-55.09610578 36.65615497 -53.68081708 34.94649925 -52.25 33.25 C-49.59467042 29.98654423 -46.96765052 26.70349149 -44.359375 23.40234375 C-18.83695517 -8.74572919 -18.83695517 -8.74572919 0 0 Z M-436.5 119.375 C-436.5 222.005 -436.5 324.635 -436.5 430.375 C-322.32 430.375 -208.14 430.375 -90.5 430.375 C-90.5 347.545 -90.5 264.715 -90.5 179.375 C-93.1746438 182.0496438 -94.90150955 184.37225779 -96.90625 187.5390625 C-97.56173828 188.56966797 -98.21722656 189.60027344 -98.89257812 190.66210938 C-99.93575195 192.31436523 -99.93575195 192.31436523 -101 194 C-101.72806814 195.1467686 -102.45658751 196.29325084 -103.18554688 197.43945312 C-104.2792451 199.15924338 -105.3726969 200.87918318 -106.46472168 202.60003662 C-109.28383356 207.04212141 -112.13265488 211.46395629 -115 215.875 C-119.53013627 222.85578043 -124.01762928 229.86347038 -128.5 236.875 C-133.40377997 244.54571727 -138.3220469 252.20622825 -143.27734375 259.84375 C-147.37773848 266.17076857 -151.43902167 272.52263166 -155.5 278.875 C-160.40377997 286.54571727 -165.3220469 294.20622825 -170.27734375 301.84375 C-174.37773848 308.17076857 -178.43902167 314.52263166 -182.5 320.875 C-187.40079131 328.54104227 -192.3091494 336.20151381 -197.27075195 343.82836914 C-200.02752743 348.07362886 -202.74692622 352.34091381 -205.44921875 356.62109375 C-206.14917969 357.72582031 -206.84914063 358.83054687 -207.5703125 359.96875 C-208.94107233 362.13364006 -210.30726358 364.30143242 -211.66796875 366.47265625 C-219.78933008 379.27689931 -228.10192027 391.02049733 -243.58203125 394.93359375 C-257.04754761 396.97054602 -269.3355759 395.72096701 -280.6875 387.5625 C-282.0796875 386.4796875 -282.0796875 386.4796875 -283.5 385.375 C-284.16 385.375 -284.82 385.375 -285.5 385.375 C-285.72558594 384.82972656 -285.95117188 384.28445313 -286.18359375 383.72265625 C-287.89143274 380.67692559 -290.17055337 378.32180278 -292.5625 375.8125 C-297.02996599 371.04006751 -301.21902393 366.11720871 -305.3203125 361.0234375 C-307.47757399 358.40224881 -309.71311 355.88345719 -312 353.375 C-315.91891252 349.07508209 -319.59170869 344.61580453 -323.25 340.09375 C-325.43501569 337.45352271 -327.69171391 334.9077028 -330 332.375 C-333.91891252 328.07508209 -337.59170869 323.61580453 -341.25 319.09375 C-343.43501569 316.45352271 -345.69171391 313.9077028 -348 311.375 C-351.91891252 307.07508209 -355.59170869 302.61580453 -359.25 298.09375 C-361.43501569 295.45352271 -363.69171391 292.9077028 -366 290.375 C-369.92038498 286.07346648 -373.59647154 281.61479049 -377.25 277.0859375 C-379.42066926 274.47058253 -381.68311742 271.98582193 -384 269.5 C-396.15962493 256.12441258 -402.31995155 243.49551637 -401.63183594 225.29443359 C-400.93580366 215.16071923 -395.53337953 205.92123019 -388.25 199.0625 C-377.77925731 190.351546 -366.89450317 187.54117 -353.5 188.375 C-335.29252311 190.46341819 -324.22024753 204.30779816 -313.13037109 217.44628906 C-311.07511232 219.87763741 -309.00072142 222.29216964 -306.92529297 224.70629883 C-305.43621579 226.43899431 -303.95005869 228.17414951 -302.46484375 229.91015625 C-299.47875854 233.40032178 -296.48960842 236.88785232 -293.5 240.375 C-292.4999866 241.54165518 -291.49998659 242.70832184 -290.5 243.875 C-290.005 244.4525 -289.51 245.03 -289 245.625 C-287.5 247.375 -286 249.125 -284.5 250.875 C-284.00443604 251.45314453 -283.50887207 252.03128906 -282.99829102 252.62695312 C-282.00393395 253.78706337 -281.00963008 254.9472192 -280.01538086 256.10742188 C-277.42949077 259.12478862 -274.84252563 262.14122426 -272.25390625 265.15625 C-271.71958984 265.77886719 -271.18527344 266.40148437 -270.63476562 267.04296875 C-269.62209168 268.22295404 -268.60909596 269.40266329 -267.59570312 270.58203125 C-264.53145668 274.15343392 -261.50507274 277.75364192 -258.5 281.375 C-251.32661481 274.43301434 -244.83596413 266.90364337 -238.66015625 259.0703125 C-236.18182581 255.97800147 -233.63085002 252.95505704 -231.0625 249.9375 C-226.99009484 245.14851818 -222.97517934 240.31882474 -219.00390625 235.4453125 C-211.18971525 225.86348079 -203.33306826 216.31929692 -195.32592773 206.89794922 C-191.83583103 202.78643408 -188.41060741 198.62598691 -185.00390625 194.4453125 C-177.18971525 184.86348079 -169.33306826 175.31929692 -161.32592773 165.89794922 C-157.83583103 161.78643408 -154.41060741 157.62598691 -151.00390625 153.4453125 C-147.88656995 149.62280652 -144.75799317 145.80967922 -141.625 142 C-141.03082275 141.2771582 -140.43664551 140.55431641 -139.82446289 139.80957031 C-135.50478951 134.56597496 -131.13492681 129.367505 -126.69970703 124.22119141 C-124.46970694 122.07792732 -124.46970694 122.07792732 -123.5 119.375 C-226.79 119.375 -330.08 119.375 -436.5 119.375 Z " fill="#FEFEFE" transform="translate(506.5,6.625)"/>
<path d="M0 0 C3.66454001 3.48131301 5.27892274 6.76666292 5.96875 11.78515625 C6.12312748 29.8280245 -2.97352985 43.8505369 -12.625 58.5 C-13.27952148 59.49990967 -13.93404297 60.49981934 -14.60839844 61.5300293 C-19.00126524 68.2042184 -23.55454354 74.74109255 -28.21679688 81.22851562 C-32.26669605 86.9180501 -35.90884776 92.81059905 -39.50366211 98.79516602 C-42.32740947 103.48789036 -45.24459362 108.08836855 -48.3125 112.625 C-52.46262304 118.76600951 -56.46865137 124.99035979 -60.4375 131.25 C-64.66221797 137.91249289 -68.89678645 144.56727555 -73.1875 151.1875 C-73.62594238 151.86490234 -74.06438477 152.54230469 -74.51611328 153.24023438 C-76.80476566 156.77270116 -79.10411052 160.29782976 -81.4140625 163.81640625 C-81.89915283 164.55850342 -82.38424316 165.30060059 -82.8840332 166.06518555 C-83.7931444 167.45565489 -84.70540085 168.84407663 -85.62182617 170.22973633 C-88.06559129 173.97390514 -90.28471786 177.7757401 -92.39453125 181.71875 C-95.42943596 187.35382326 -98.83533428 192.67158284 -102.375 198 C-103.70150672 200.01497631 -105.02699127 202.03062584 -106.3515625 204.046875 C-107.03250977 205.08263672 -107.71345703 206.11839844 -108.41503906 207.18554688 C-111.89914868 212.51533704 -115.32457195 217.88237796 -118.75 223.25 C-123.14817119 230.13714816 -127.55167567 237.02012207 -132 243.875 C-136.52954207 250.85616969 -141.01762588 257.86346507 -145.5 264.875 C-150.40377997 272.54571727 -155.3220469 280.20622825 -160.27734375 287.84375 C-164.37773848 294.17076857 -168.43902167 300.52263166 -172.5 306.875 C-177.40432081 314.54656329 -182.32158891 322.20894148 -187.27954102 329.84594727 C-190.66271373 335.06389118 -194.01036135 340.30401452 -197.35400391 345.54736328 C-202.89478114 354.23055461 -208.44677118 362.90585026 -214.125 371.5 C-214.58511475 372.20310303 -215.04522949 372.90620605 -215.51928711 373.63061523 C-222.51625222 384.14593699 -230.89018644 392.72532137 -243.58203125 395.93359375 C-258.38677732 398.17313365 -271.16992982 395.88874388 -283.53515625 387.01171875 C-286.97151526 384.14922486 -289.68278751 380.83299023 -292.5 377.375 C-293.87841424 375.75401861 -295.26638983 374.14152499 -296.6550293 372.52929688 C-298.21509622 370.71795901 -299.77026814 368.90252426 -301.32421875 367.0859375 C-304.38077375 363.51387537 -307.44006739 359.94416881 -310.5 356.375 C-311.50001341 355.20834483 -312.50001339 354.04167815 -313.5 352.875 C-313.995 352.2975 -314.49 351.72 -315 351.125 C-332.5 330.70833333 -350 310.29166667 -367.5 289.875 C-367.9952417 289.29733887 -368.4904834 288.71967773 -369.00073242 288.12451172 C-369.99877386 286.95988626 -370.99633405 285.79484822 -371.9934082 284.62939453 C-374.51955094 281.67789605 -377.05413037 278.7344464 -379.60546875 275.8046875 C-394.02884888 259.2055232 -404.0694677 246.2252872 -402.5 223.375 C-400.67081763 211.79534552 -393.77592796 202.1377925 -384.734375 194.9765625 C-374.13575858 187.62878221 -361.37904186 185.8029977 -348.875 188.0625 C-331.06565374 192.74748118 -319.82323199 207.96850491 -308.75 221.65625 C-306.56498431 224.29647729 -304.30828609 226.8422972 -302 229.375 C-298.08108748 233.67491791 -294.40829131 238.13419547 -290.75 242.65625 C-288.56498431 245.29647729 -286.30828609 247.8422972 -284 250.375 C-280.88541332 253.79239372 -277.9081338 257.2802235 -275 260.875 C-269.49213267 267.67543164 -263.73167362 274.22734895 -257.5 280.375 C-251.39814811 273.31719132 -245.33991962 266.25124682 -239.5546875 258.9296875 C-237.10811491 255.88775124 -234.59163683 252.91083923 -232.0625 249.9375 C-227.99025536 245.1483793 -223.97518265 240.3188288 -220.00390625 235.4453125 C-212.18971525 225.86348079 -204.33306826 216.31929692 -196.32592773 206.89794922 C-192.83583103 202.78643408 -189.41060741 198.62598691 -186.00390625 194.4453125 C-178.18971525 184.86348079 -170.33306826 175.31929692 -162.32592773 165.89794922 C-158.83583103 161.78643408 -155.41060741 157.62598691 -152.00390625 153.4453125 C-128.73687194 124.91506451 -128.73687194 124.91506451 -119.5 114.9375 C-115.34737575 110.41866007 -111.56660437 105.70704088 -107.82080078 100.85449219 C-103.78943153 95.66465106 -99.52023289 90.71073306 -95.19384766 85.76611328 C-91.360014 81.3808456 -87.62493059 76.93125714 -83.9609375 72.40234375 C-81.97999628 69.96547161 -79.98398844 67.54387472 -77.9765625 65.12890625 C-77.35193115 64.37593262 -76.7272998 63.62295898 -76.08374023 62.84716797 C-74.8483837 61.35875977 -73.61101436 59.87201914 -72.37133789 58.38720703 C-69.90829531 55.41352944 -67.57377831 52.48566746 -65.4296875 49.26953125 C-63.17416274 45.8862441 -60.62116654 42.92081771 -57.9375 39.875 C-53.76718484 35.08522327 -49.75569484 30.21440043 -45.875 25.1875 C-31.766639 7.0593538 -31.766639 7.0593538 -21.5 1.375 C-20.38625 0.75625 -19.2725 0.1375 -18.125 -0.5 C-11.85315335 -2.44643517 -6.02073129 -2.79533953 0 0 Z " fill="#00A344" transform="translate(506.5,6.625)"/>
</svg>
